Coordinates
version=1
nRows=5
nColumns=42
inDegrees=yes

Units are S.I. units (second, meters, Newtons, ...)
If the header above contains a line with 'inDegrees', this indicates whether rotational values are in degrees (yes) or radians (no).

endheader
time	pelvis_tilt	pelvis_list	pelvis_rotation	pelvis_tx	pelvis_ty	pelvis_tz	hip_flexion_r	hip_adduction_r	hip_rotation_r	knee_angle_r	knee_adduction_r	knee_angle_r_beta	ankle_angle_r	subtalar_angle_r	mtp_angle_r	hip_flexion_l	hip_adduction_l	hip_rotation_l	knee_angle_l	knee_adduction_l	knee_angle_l_beta	ankle_angle_l	subtalar_angle_l	mtp_angle_l	lumbar_extension	lumbar_bending	lumbar_rotation	arm_flex_r	arm_add_r	arm_rot_r	elbow_flex_r	pro_sup_r	wrist_flex_r	wrist_dev_r	arm_flex_l	arm_add_l	arm_rot_l	elbow_flex_l	pro_sup_l	wrist_flex_l	wrist_dev_l
      1.20000000	     20.54272739	     -0.03852564	     -8.54494158	      0.35038280	      0.99477442	     -0.09137035	    -13.55887569	     -2.11176378	     -7.01705349	     66.01730175	     -8.34510061	      1.15221928	      2.75753730	     -5.47715509	     -7.56932448	     -4.45884531	      4.95737396	    -22.53977125	     26.00946135	     -7.10329071	      0.45395074	     11.15738060	     19.40584313	     -7.56932448	    -42.47080829	     -3.20997716	      5.99029772	      3.54268404	    -18.90085086	     -3.10258522	     67.98658436	     90.00000001	      0.00000000	      0.00000000	     -1.78976599	    -17.08347546	     -1.31192367	     52.85314166	     90.00000001	      0.00000000	      0.00000000
      1.21000000	     20.82774328	      0.02804185	     -8.30077452	      0.36393665	      0.99735728	     -0.09171372	    -12.24744668	     -2.24006566	     -7.97517001	     65.92447077	     -8.87342384	      1.15059907	      4.31906308	     -4.31804408	     -7.56583773	     -6.16529502	      5.14864423	    -23.10844659	     24.90173321	     -7.06526709	      0.43461723	     11.46035503	     21.66287497	     -7.56583773	    -42.70649879	     -3.03299520	      5.64370995	      3.21999532	    -18.95430045	     -3.37227953	     68.14712363	     90.00000001	      0.00000000	      0.00000000	     -1.40366011	    -17.34189075	     -1.41119108	     53.78467427	     90.00000001	      0.00000000	      0.00000000
      1.22000000	     20.81993860	     -0.02511860	     -7.92943640	      0.37714749	      0.99932094	     -0.09214403	    -10.63899645	     -2.06632419	     -8.41542448	     65.60598461	     -8.94273634	      1.14504044	      5.46684854	     -4.12449408	     -7.56349500	     -7.48437251	      5.18024383	    -23.36817252	     23.93849036	     -7.04491493	      0.41780547	     11.82155877	     22.85006108	     -7.56349500	    -42.68408203	     -2.64353784	      5.33773115	      2.89383065	    -19.02470857	     -3.66780243	     68.23256025	     90.00000001	      0.00000000	      0.00000000	     -0.96738190	    -17.54829859	     -1.54076264	     54.62051498	     90.00000001	      0.00000000	      0.00000000
      1.23000000	     20.80378101	     -0.16325709	     -7.64318838	      0.39029020	      1.00098473	     -0.09230897	     -9.06230998	     -1.77729703	     -8.79397941	     64.93521034	     -9.05731877	      1.13333322	      6.46276998	     -3.74168680	     -7.55989828	     -8.75755560	      5.02528358	    -24.17227140	     23.05780883	     -7.06425383	      0.40243468	     12.12688428	     24.86947495	     -7.55989828	    -42.65547892	     -2.25027297	      5.17967390	      2.58695735	    -19.14220818	     -3.89523114	     68.31921858	     90.00000001	      0.00000000	      0.00000000	     -0.50798033	    -17.76692794	     -1.60263571	     55.48554994	     90.00000001	      0.00000000	      0.00000000
      1.24000000	     20.53996605	     -0.20029386	     -7.29745692	      0.40310806	      1.00198989	     -0.09258855	     -7.19380531	     -1.55551784	     -8.87460104	     64.13568266	     -8.83754979	      1.11937883	      7.20272973	     -3.91189722	     -7.55900570	     -9.73056660	      5.01304798	    -24.29267159	     22.19269904	     -6.96287436	      0.38733567	     12.40733902	     25.26889439	     -7.55900570	    -42.39626577	     -1.89190866	      4.94419630	      2.33675748	    -19.23219786	     -4.12942582	     68.32302281	     90.00000001	      0.00000000	      0.00000000	      0.03148219	    -17.96927932	     -1.69458199	     56.28895425	     90.00000001	      0.00000000	      0.00000000
